<?xml version="1.0" ?><svg xmlns="http://www.w3.org/2000/svg" xmlns:xlink="http://www.w3.org/1999/xlink" version="1.1" viewBox="0 0 512 512" style="enable-background:new 0 0 512 512;" xml:space="preserve"><style type="text/css">
	.st0{fill:#231A15;}
	.st1{fill:#FFE000;}
	.st2{fill:#BCA100;}
	.st3{fill:#FC0000;}
	.st4{fill:#AA0000;}
	.st5{fill:#F94343;}
	.st6{fill:#FFFFFF;}
	.st7{fill:#A58E07;}
	.st8{opacity:0.44;}
	.st9{fill:#756204;}
	.st10{opacity:0.64;}
	.st11{opacity:0.38;}
	.st12{fill:#5D5004;}
	.st13{fill:#B7A100;}
	.st14{fill:#1D4DFC;}
	.st15{fill:#143CAF;}
	.st16{opacity:0.59;}
	.st17{opacity:0.52;}
	.st18{fill:#FF7F1F;}
	.st19{fill:#C4570C;}
	.st20{fill:#B29904;}
	.st21{fill:#87720A;}
	.st22{fill:#DDDDDD;}
	.st23{opacity:0.51;}
	.st24{fill:#878787;}
	.st25{fill:#727272;}
	.st26{opacity:0.33;}
	.st27{opacity:0.46;}
	.st28{fill:#25CBF2;}
	.st29{fill:#0A8FA5;}
	.st30{opacity:0.58;}
	.st31{fill:#04889E;}
	.st32{fill:#035A63;}
	.st33{opacity:0.65;}
	.st34{opacity:0.39;}
	.st35{fill:#AB0000;}
	.st36{fill:#1987A1;}
	.st37{fill:#3F1F0A;}
	.st38{fill:#4DEEFF;}
	.st39{fill:#21B9C1;}
	.st40{fill:#BBF9FF;}
	.st41{fill:#64ACAF;}
	.st42{fill:#089FB7;}
	.st43{opacity:0.47;}
	.st44{opacity:0.42;}
	.st45{fill:#DBF7FC;}
	.st46{fill:#B2E7ED;}
	.st47{fill:#0FA2BA;}
	.st48{opacity:0.54;}
	.st49{fill:#8E7716;}
	.st50{fill:#191401;}
	.st51{fill:#382E02;}
	.st52{fill:#605106;}
	.st53{fill:#AFACA0;}
	.st54{fill:#BC0404;}
	.st55{fill:#750000;}
	.st56{fill:#A08B0D;}
	.st57{fill:#5B4C05;}
	.st58{opacity:0.4;}
	.st59{opacity:0.5;}
	.st60{fill:#FF8383;}
	.st61{fill:#FFF0A6;}
	.st62{fill:#E2C227;}
	.st63{fill:#AA9205;}
	.st64{fill:#FFEA71;}
	.st65{opacity:0.22;}
	.st66{fill:#B19B00;}
	.st67{fill:#1989A4;}
	.st68{fill:#13A0B7;}
	.st69{fill:#C4A805;}
	.st70{fill:#FFF3A9;}
	.st71{fill:#846E03;}
	.st72{fill:#2D2502;}
	.st73{opacity:0.36;}
	.st74{fill:#4DD307;}
	.st75{fill:#328402;}
	.st76{fill:#97FF5A;}
	.st77{fill:#7A6500;}
	.st78{fill:#246001;}
	.st79{fill:#359100;}
	.st80{fill:#968022;}
	.st81{fill:#4F420B;}
	.st82{fill:#FFED83;}
	.st83{fill:#BAA335;}
	.st84{fill:#8D0991;}
	.st85{fill:#4B044F;}
	.st86{fill:#CE15CE;}
	.st87{fill:#897502;}
	.st88{fill:#493D01;}
	.st89{fill:#C9C9C9;}
	.st90{fill:#2D280E;}
	.st91{fill:#378C06;}
	.st92{fill:#183A03;}
	.st93{fill:#94FF55;}
	.st94{fill:#2E7F04;}
	.st95{fill:#63AB39;}
	.st96{fill:#AA5F04;}
	.st97{fill:#633502;}
	.st98{fill:#EF9014;}
	.st99{fill:#A05A07;}
	.st100{fill:#05616B;}
	.st101{fill:#033335;}
	.st102{fill:#0E94AA;}
	.st103{fill:#035D66;}
	.st104{opacity:0.27;}
	.st105{opacity:0.43;}
	.st106{fill:#FFF203;}
	.st107{fill:#FFA300;}
	.st108{fill:#2B3030;}
	.st109{opacity:0.28;}
	.st110{fill:#FCD17A;}
	.st111{fill:#AF853A;}
	.st112{opacity:0.31;}
	.st113{fill:#B641FF;}
	.st114{fill:#700FBC;}
	.st115{fill:#F2D0B1;}
	.st116{fill:#AF835F;}
	.st117{fill:#C17540;}
	.st118{fill:#F2BA94;}
	.st119{fill:#592909;}
	.st120{fill:#2B1204;}
	.st121{fill:#894818;}
	.st122{fill:#512609;}
	.st123{fill:#FF7F15;}
	.st124{fill:#A04A0A;}
	.st125{fill:#B7865E;}
	.st126{fill:#70350E;}
	.st127{fill:#3A1805;}
	.st128{fill:#C1521B;}
	.st129{fill:#FFC7AE;}
	.st130{fill:#FF717F;}
	.st131{fill:#6E2F0F;}
	.st132{fill:#AC8675;}
	.st133{opacity:0.25;}
	.st134{opacity:0.32;}
	.st135{fill:#FFFCC5;}
	.st136{fill:#D1CA78;}
	.st137{fill:#D37733;}
	.st138{fill:#A04F18;}
	.st139{fill:#0ABFBA;}
	.st140{fill:#057F79;}
	.st141{fill:#15F9F9;}
	.st142{fill:#09B2AD;}
	.st143{fill:#B2B2B2;}
	.st144{fill:#FFF755;}
	.st145{fill:#BCB121;}
	.st146{fill:#F90368;}
	.st147{opacity:0.49;}
	.st148{fill:#B50857;}
	.st149{fill:#FF76B4;}
	.st150{fill:#F23091;}
	.st151{fill:#FFF800;}
	.st152{fill:#C9BF05;}
	.st153{fill:#FF8500;}
	.st154{fill:#A35507;}
	.st155{fill:#AA6E50;}
	.st156{fill:#723C25;}
	.st157{fill:#EAD4B9;}
	.st158{fill:#AA8D6F;}
	.st159{fill:#B7A8A5;}
	.st160{fill:#84726F;}
	.st161{fill:#77645F;}
	.st162{fill:#51403C;}
	.st163{fill:#EABBA7;}
	.st164{fill:#BC7F69;}
	.st165{fill:#7C5039;}
	.st166{fill:#442619;}
	.st167{fill:#B7AE04;}
	.st168{fill:#BAB108;}
	.st169{fill:#7A7105;}
	.st170{fill:#352B23;}
	.st171{fill:#050403;}
	.st172{fill:#706255;}
	.st173{fill:#44382E;}
	.st174{fill:#634319;}
	.st175{fill:#35210A;}
	.st176{fill:#2D1C08;}
	.st177{fill:#0A0601;}
	.st178{fill:#9E7443;}
	.st179{fill:#704D2A;}
	.st180{fill:#D8A73A;}
	.st181{fill:#A0741C;}
	.st182{fill:#3F2F28;}
	.st183{fill:#211410;}
	.st184{fill:#FF326C;}
	.st185{fill:#BC0749;}
	.st186{fill:#68390E;}
	.st187{fill:#A5632D;}
	.st188{fill:#3D1E05;}
	.st189{fill:#331A06;}
	.st190{fill:#110801;}
	.st191{fill:#160A02;}
	.st192{fill:#663514;}
	.st193{opacity:0.29;}
	.st194{fill:#FC001F;}
	.st195{fill:#AF021F;}
	.st196{fill:#C48622;}
	.st197{fill:#8C5910;}
	.st198{fill:#846D64;}
	.st199{fill:#513B35;}
	.st200{fill:#5B4842;}
	.st201{fill:#332522;}
	.st202{fill:#47332C;}
	.st203{fill:#543E38;}
	.st204{fill:#1E1412;}
	.st205{fill:#604C43;}
	.st206{fill:#D3896C;}
	.st207{fill:#FF001F;}
	.st208{fill:#AF0824;}
	.st209{fill:#A37462;}
	.st210{fill:#5E3E34;}
	.st211{fill:#874A38;}
	.st212{fill:#4C2218;}
	.st213{fill:#5B2B20;}
	.st214{fill:#210C09;}
	.st215{fill:#99001A;}
	.st216{fill:#A08A07;}
	.st217{fill:#A08904;}
	.st218{fill:#5B4C02;}
	.st219{fill:#CECAB7;}
	.st220{fill:#727068;}
	.st221{fill:#42403A;}
	.st222{fill:#B2B0A6;}
	.st223{fill:#726F62;}
	.st224{fill:#6B4F45;}
	.st225{fill:#3A261F;}
	.st226{fill:#777468;}
	.st227{fill:#474436;}
	.st228{fill:#B78B7D;}
	.st229{fill:#845A4E;}
	.st230{fill:#3A372D;}
	.st231{fill:#43CFFF;}
	.st232{fill:#13A0BC;}
</style><g id="_x30_6"><g><path class="st0" d="M270.51,466.66c-1.35,0-2.69-0.01-4.02-0.03c-0.02,0-0.04,0-0.06,0c-1.5-0.02-3-0.06-4.49-0.1l-0.6-0.02    c-1.48-0.05-2.98-0.1-4.48-0.18c-0.03,0-0.1-0.01-0.13-0.01c-6.27-0.3-12.6-0.83-18.74-1.56l-0.16-0.02    c-7.93-0.95-15.64-2.27-23-3.91c-0.01,0-0.02,0-0.03-0.01c-9.14-2.04-17.91-4.63-26.07-7.7l-0.12-0.04    c-19.94-7.52-36.52-17.96-49.27-31.05c-0.46-0.47-0.92-0.95-1.38-1.43c-0.57-0.61-1.12-1.21-1.67-1.81    c-0.57-0.63-1.12-1.28-1.68-1.92l-0.36-0.41c-0.31-0.36-0.62-0.72-0.92-1.08c-0.87-1.05-1.75-2.18-2.69-3.42    c-0.25-0.34-0.5-0.68-0.75-1.02l-0.21-0.3c-0.65-0.89-1.29-1.8-1.92-2.72l-0.15-0.22c-0.23-0.34-0.46-0.68-0.69-1.02    c-0.98-1.49-1.78-2.75-2.52-3.99c-0.01-0.02-0.02-0.03-0.03-0.05l0,0c-0.01-0.01-0.02-0.03-0.02-0.04    c-0.01-0.02-0.02-0.03-0.03-0.05c-0.02-0.04-0.04-0.08-0.06-0.11c-0.82-1.39-1.61-2.75-2.37-4.1c-0.18-0.33-0.36-0.66-0.54-0.99    l-0.5-0.91c-0.44-0.8-0.88-1.6-1.3-2.39c-0.21-0.4-0.42-0.8-0.62-1.2l-0.57-1.12c-0.34-0.65-0.67-1.31-1-1.95    c-0.22-0.44-0.43-0.88-0.63-1.31l-0.56-1.17c-0.29-0.59-0.57-1.19-0.85-1.78c-0.22-0.47-0.42-0.93-0.63-1.4l-0.5-1.12    c-0.26-0.58-0.52-1.15-0.77-1.72c-0.21-0.49-0.42-0.98-0.62-1.47l-0.43-1.04c-0.24-0.57-0.48-1.14-0.71-1.71    c-0.21-0.51-0.4-1.02-0.6-1.53l-0.38-0.97c-0.22-0.56-0.44-1.12-0.64-1.68c-0.2-0.54-0.39-1.07-0.58-1.61l-0.33-0.91    c-0.2-0.55-0.39-1.1-0.58-1.64c-0.2-0.57-0.38-1.13-0.56-1.7l-0.28-0.84c-0.17-0.53-0.35-1.06-0.51-1.59    c-0.18-0.57-0.35-1.13-0.51-1.7l-0.25-0.83c-0.16-0.52-0.31-1.05-0.46-1.57c-0.18-0.64-0.35-1.28-0.52-1.91l-0.14-0.52    c-0.15-0.54-0.29-1.09-0.43-1.63c-0.17-0.68-0.34-1.36-0.5-2.04l-0.11-0.45c-0.12-0.51-0.25-1.03-0.36-1.54    c-0.16-0.71-0.31-1.42-0.46-2.12l-0.08-0.37c-0.11-0.5-0.21-1.01-0.31-1.51c-0.15-0.74-0.28-1.48-0.42-2.22L102.6,346    c-0.1-0.52-0.19-1.05-0.28-1.57c-0.13-0.76-0.24-1.5-0.36-2.25l-0.02-0.1c-0.08-0.53-0.16-1.06-0.24-1.58    c-0.11-0.76-0.21-1.51-0.3-2.27l-0.03-0.21c-0.06-0.47-0.12-0.94-0.17-1.4c-0.09-0.76-0.17-1.53-0.24-2.29l-0.01-0.14    c-0.04-0.46-0.09-0.93-0.13-1.39c-0.07-0.78-0.13-1.56-0.18-2.33c-0.04-0.49-0.07-0.98-0.1-1.46c-0.05-0.79-0.09-1.57-0.12-2.35    c-0.02-0.47-0.04-0.93-0.06-1.39c-0.03-0.8-0.05-1.59-0.06-2.39c-0.01-0.44-0.01-0.88-0.02-1.32c-0.01-0.8,0-1.61,0-2.41    l0.02-1.22c0.02-0.83,0.04-1.65,0.07-2.46l0.05-1.13c0.04-0.84,0.08-1.67,0.13-2.49l0.07-1.03c0.06-0.86,0.13-1.71,0.2-2.54    l0.09-0.93c0.09-0.89,0.18-1.75,0.27-2.6l0.1-0.85c0.11-0.88,0.22-1.75,0.35-2.62l0.11-0.73c0.13-0.9,0.27-1.79,0.42-2.67    l0.11-0.64c0.16-0.92,0.32-1.82,0.5-2.72l0.11-0.54c0.18-0.91,0.37-1.83,0.58-2.75l0.09-0.4c0.22-0.96,0.44-1.91,0.67-2.84    l0.05-0.19c0.26-1.05,0.51-2.01,0.78-2.97c0.01-0.03,0.03-0.12,0.04-0.15c0.27-0.99,0.55-1.96,0.85-2.93    c0-0.02,0.01-0.03,0.01-0.05c0.32-1.05,0.65-2.09,0.98-3.12c0.01-0.03,0.02-0.07,0.04-0.11c0.34-1.03,0.67-2,1.02-2.97    c0.02-0.04,0.03-0.08,0.05-0.13c0.34-0.94,0.7-1.91,1.07-2.88c0.01-0.03,0.06-0.15,0.07-0.18c0.34-0.88,0.72-1.82,1.1-2.75    c0.01-0.02,0.04-0.11,0.05-0.13c0.39-0.93,0.78-1.84,1.17-2.73c0.01-0.01,0.04-0.1,0.05-0.11c0.41-0.93,0.82-1.81,1.23-2.67    c0.01-0.01,0.05-0.11,0.06-0.12c0.44-0.92,0.85-1.76,1.27-2.59l0.1-0.19c0.42-0.84,0.85-1.65,1.28-2.45l0.14-0.26    c0.26-0.48,0.52-0.97,0.79-1.46c-0.08-0.06-0.16-0.11-0.24-0.17l-0.36-0.25c-1.19-0.83-2.42-1.74-3.64-2.67l-0.35-0.27    c-1.27-0.98-2.48-1.94-3.62-2.89c-0.02-0.02-0.1-0.09-0.13-0.11c-2.45-2.05-4.84-4.22-7.11-6.46l-0.1-0.09    c-1.1-1.09-2.2-2.22-3.29-3.39l-0.18-0.2c-0.11-0.12-0.22-0.23-0.33-0.35c-3.97,0.15-8.02,0.14-12.11-0.04    c-12.67-0.55-23.48-2.44-32.11-5.61c-0.04-0.02-0.12-0.04-0.18-0.07c-15.04-5.58-19.9-13.64-21.34-19.43    c-1.45-5.84,0.07-11.82,4.18-16.41c7.43-8.3,15.16-12.78,17.42-13.98c1.34-0.88,7.29-4.88,14.08-11.06    c-0.24-2.36-0.41-4.74-0.51-7.11l-0.04-0.94c-0.05-1.45-0.07-2.68-0.07-3.85c0-0.03,0-0.07,0-0.1c0-21.28,5.81-42.09,16.81-60.19    c0.48-0.8,0.98-1.59,1.48-2.37c1-1.56,2.06-3.12,3.13-4.63c1.61-2.26,3.32-4.49,5.09-6.64c1.18-1.43,2.4-2.84,3.65-4.21    c1.87-2.05,3.83-4.06,5.83-5.97c1.34-1.28,2.73-2.54,4.12-3.75c0.7-0.61,1.41-1.21,2.12-1.8c2.86-2.36,5.86-4.61,8.93-6.68    c3.08-2.08,6.3-4.04,9.57-5.81c2.47-1.34,5.01-2.6,7.56-3.76c1.71-0.77,3.46-1.51,5.21-2.2c13.55-5.34,27.87-8.05,42.56-8.05    c1.21,0,2.41,0.02,3.6,0.06l1.05,0.04c0.9,0.04,1.8,0.08,2.7,0.14l0.99,0.06c1.19,0.08,2.39,0.18,3.57,0.3    c0.04,0,0.09,0.01,0.14,0.02c1.15,0.12,2.28,0.26,3.41,0.41l0.9,0.13c0.95,0.13,1.9,0.28,2.84,0.44l0.76,0.13    c1.55,0.27,3.18,0.59,4.81,0.94c0.76,0.16,1.51,0.33,2.26,0.52l0.63,0.15c1.04,0.26,2.08,0.52,3.11,0.81l0.42,0.11    c2.3,0.64,4.67,1.38,7,2.19l0.36,0.13c3.49,1.23,6.96,2.64,10.31,4.2c0.01,0.01,0.1,0.05,0.11,0.05c2.67,1.24,5.33,2.61,7.9,4.06    c1.4,0.79,2.8,1.62,4.17,2.47c0.03,0.02,0.06,0.04,0.09,0.05c4.01,2.49,7.96,5.29,11.69,8.3l0.19,0.16    c1.17,0.94,2.37,1.96,3.54,2.98c0.02,0.02,0.09,0.08,0.11,0.1c2.37,2.08,4.68,4.29,6.87,6.56c1.1,1.14,2.15,2.27,3.19,3.45    l0.26,0.29c1.01,1.15,2.01,2.31,2.94,3.46l0.13,0.16c1.96,2.42,3.83,4.91,5.58,7.45l0.22,0.31c0.82,1.2,1.64,2.45,2.44,3.72    l0.28,0.46c0.84,1.34,1.59,2.6,2.3,3.85l0.13,0.23c0.81,1.43,1.52,2.74,2.19,4.03c0.01,0.02,0.02,0.04,0.03,0.05    c0.68,1.32,1.33,2.65,2.01,4.11l0.25,0.54c0.61,1.32,1.19,2.66,1.75,4l0.25,0.6c0.61,1.49,1.13,2.85,1.61,4.17l0.1,0.28    c0.5,1.39,0.98,2.8,1.43,4.21l0.12,0.36c0.42,1.36,0.83,2.75,1.25,4.27l0.2,0.74c0.38,1.41,0.72,2.84,1.04,4.24l0.15,0.7    c0.35,1.61,0.64,3.06,0.89,4.45l0.04,0.27c0.24,1.37,0.46,2.82,0.68,4.38l0.08,0.61c0.18,1.39,0.34,2.84,0.49,4.42l0.07,0.84    c0.13,1.53,0.23,3.03,0.29,4.46l0.03,0.71c0.07,1.74,0.1,3.29,0.1,4.73c0,19.92-4.93,39-14.39,56.05    c0.34,0.02,0.69,0.05,1.04,0.08l2.87,0.24c0.76,0.07,1.52,0.13,2.29,0.21l0.45,0.04c0.63,0.06,1.27,0.12,1.91,0.19l0.69,0.07    c0.64,0.07,1.29,0.13,1.95,0.2l0.47,0.05c0.8,0.09,1.6,0.18,2.41,0.27l0.67,0.08c0.62,0.07,1.25,0.15,1.88,0.23l0.78,0.1    c0.74,0.09,1.5,0.19,2.27,0.29l0.16,0.02c0.02,0,0.09,0.01,0.11,0.01c0.85,0.11,1.7,0.23,2.56,0.35l3.53,0.51    c0.88,0.13,1.76,0.27,2.66,0.41l0.26,0.04c0.84,0.13,1.66,0.27,2.47,0.4l0.86,0.14c0.69,0.12,1.38,0.24,2.08,0.36l0.76,0.13    c0.93,0.17,1.86,0.33,2.79,0.5l0.56,0.1c0.78,0.15,1.55,0.29,2.33,0.44l0.89,0.17c0.76,0.15,1.52,0.3,2.28,0.45l0.67,0.14    c0.96,0.2,1.93,0.4,2.91,0.61l0.72,0.16c0.77,0.17,1.54,0.33,2.3,0.51l0.91,0.2c0.86,0.19,1.73,0.39,2.59,0.6l0.42,0.1    c1.02,0.24,2.04,0.49,3.05,0.73l0.8,0.2c0.79,0.2,1.57,0.39,2.36,0.59l0.9,0.23c1.03,0.27,2.07,0.54,3.11,0.82    c1.38,0.37,2.75,0.71,4.12,1.03l1.19,0.27c1.04,0.24,2.08,0.46,3.1,0.67l1.08,0.22c1.3,0.26,2.59,0.49,3.87,0.71l1.12,0.18    c0.93,0.15,1.85,0.29,2.77,0.42c0.5,0.07,1.01,0.14,1.51,0.2c0.86,0.11,1.71,0.21,2.55,0.3c0.6,0.07,1.22,0.13,1.82,0.19    c0.95,0.09,1.89,0.18,2.82,0.25c0.63,0.05,1.26,0.09,1.89,0.13c0.56,0.04,1.1,0.07,1.65,0.09c0.68,0.03,1.37,0.07,2.05,0.09    l1,0.03c1.54,0.04,3.03,0.06,4.45,0.05l0.73,0c0.84-0.01,1.68-0.02,2.51-0.05l0.43-0.01c2.71-0.09,5.39-0.25,7.99-0.49    c20.94-1.94,37.22-8.58,45.47-14.15c0.33-0.22,0.64-0.44,0.95-0.66l0.18-0.13c0.27-0.19,0.51-0.37,0.74-0.55l0.31-0.25    c0.01-0.01,0.09-0.07,0.1-0.08c0.13-0.1,0.25-0.2,0.37-0.3c0.21-0.18,0.43-0.37,0.64-0.56c3.2-3.01,7.58-4.12,11.73-2.98    c4.76,1.31,10.94,5.33,16.54,24.97c0.46,1.62,0.91,3.32,1.33,5.06c0.43,1.76,0.84,3.59,1.22,5.45c0.59,2.85,1.12,5.84,1.6,8.87    c0.49,3.13,0.91,6.37,1.26,9.63c0.24,2.23,0.45,4.51,0.62,6.79l0,0c0.46,5.97,0.68,12.05,0.66,18.09    c-0.01,2.52-0.06,5.08-0.15,7.59c-0.14,3.91-0.39,7.84-0.73,11.69c-0.24,2.66-0.53,5.33-0.86,7.94    c-2.63,20.63-8.12,39.52-16.33,56.13c-5.36,10.85-11.93,20.78-19.52,29.49c-0.86,0.99-1.81,2.03-2.89,3.18    c-0.22,0.24-0.46,0.48-0.69,0.72l-0.25,0.26c-0.69,0.72-1.4,1.43-2.13,2.14c-0.37,0.36-0.74,0.72-1.11,1.07    c-0.73,0.69-1.46,1.37-2.21,2.05l-0.29,0.26c-0.26,0.24-0.52,0.48-0.79,0.71c-0.96,0.85-1.93,1.68-2.93,2.51l-0.44,0.37    c-1.12,0.92-2.27,1.84-3.54,2.82c-0.25,0.19-0.51,0.39-0.77,0.58l-0.32,0.24c-0.85,0.64-1.71,1.29-2.59,1.92    c-0.44,0.32-0.89,0.64-1.34,0.96c-0.84,0.59-1.69,1.18-2.55,1.76l-0.32,0.22c-0.34,0.23-0.68,0.46-1.02,0.69    c-1.01,0.67-2.03,1.33-3.07,1.98l-0.3,0.19c-0.2,0.13-0.39,0.25-0.59,0.38c-1.32,0.82-2.66,1.63-4.02,2.43    c-0.27,0.16-0.54,0.31-0.81,0.47l-0.4,0.23c-0.98,0.57-1.97,1.13-2.97,1.68c-0.49,0.27-0.98,0.54-1.48,0.81l-0.1,0.06    c-0.92,0.5-1.84,0.99-2.77,1.47l-0.15,0.08c-0.5,0.26-0.99,0.52-1.49,0.77c-1.01,0.51-2.03,1.02-3.06,1.52l-0.47,0.23    c-0.3,0.15-0.6,0.3-0.91,0.44c-1.44,0.69-2.9,1.37-4.38,2.04c-0.32,0.15-0.64,0.29-0.96,0.43l-0.49,0.22    c-1.03,0.46-2.08,0.92-3.14,1.38c-0.61,0.26-1.23,0.52-1.86,0.78c-0.97,0.41-1.91,0.79-2.85,1.17c-0.67,0.27-1.34,0.54-2.01,0.8    c-0.96,0.38-1.94,0.75-2.91,1.12l-0.52,0.2c-0.46,0.18-0.92,0.35-1.39,0.52c-1.52,0.56-3.05,1.11-4.59,1.65    c-0.39,0.14-0.79,0.27-1.19,0.41l-0.65,0.22c-1.02,0.35-2.03,0.69-3.06,1.02c-0.72,0.23-1.44,0.46-2.15,0.69l-0.17,0.05    c-0.88,0.28-1.75,0.55-2.64,0.82c-0.83,0.25-1.65,0.5-2.47,0.74c-0.86,0.25-1.72,0.5-2.59,0.75l-0.47,0.13    c-0.68,0.19-1.36,0.39-2.04,0.58c-0.78,0.22-1.57,0.43-2.36,0.63l-0.43,0.11c-1.5,0.4-3,0.78-4.51,1.16l-0.58,0.15    c-0.62,0.15-1.24,0.31-1.87,0.46c-0.88,0.21-1.75,0.41-2.63,0.61l-0.26,0.06c-0.75,0.17-1.5,0.34-2.25,0.51    c-0.99,0.22-1.99,0.43-2.99,0.65c-0.72,0.15-1.42,0.29-2.13,0.44c-1.04,0.21-2.09,0.42-3.13,0.62c-0.36,0.07-0.73,0.14-1.09,0.2    l-0.6,0.11c-2.45,0.46-4.88,0.88-7.22,1.26l-0.88,0.15c-1.19,0.19-2.37,0.37-3.56,0.54l-1.68,0.25c-1.17,0.17-2.35,0.33-3.54,0.48    l-1.61,0.21c-1.23,0.16-2.47,0.31-3.71,0.45l-0.93,0.1c-4.32,0.48-8.72,0.87-13.06,1.17l-0.93,0.06    c-1.35,0.09-2.71,0.17-4.06,0.24l-1.07,0.05c-1.39,0.07-2.79,0.13-4.19,0.18l-0.4,0.01C277.25,466.61,273.86,466.66,270.51,466.66    z M266.75,446.64c4.35,0.06,8.79,0.02,13.21-0.13l0.35-0.01c1.31-0.05,2.62-0.1,3.92-0.17l0.99-0.05    c1.27-0.07,2.54-0.14,3.81-0.22l0.87-0.06c4.07-0.28,8.19-0.65,12.23-1.1l0.87-0.09c1.16-0.13,2.32-0.27,3.48-0.42l1.51-0.19    c1.11-0.15,2.21-0.29,3.31-0.45l1.57-0.23c1.11-0.16,2.22-0.33,3.33-0.51l0.83-0.14c2.19-0.36,4.46-0.75,6.75-1.18l1.59-0.3    c0.99-0.19,1.97-0.39,2.94-0.59c0.66-0.13,1.33-0.27,1.99-0.41c0.93-0.2,1.86-0.4,2.79-0.6c0.71-0.16,1.41-0.32,2.1-0.48    l0.26-0.06c0.81-0.19,1.63-0.37,2.44-0.57c0.56-0.13,1.12-0.27,1.69-0.42l0.6-0.15c1.41-0.35,2.81-0.71,4.2-1.08l0.44-0.12    c0.72-0.19,1.45-0.38,2.17-0.58c0.62-0.17,1.23-0.35,1.85-0.52l0.48-0.14c0.81-0.23,1.61-0.46,2.4-0.7    c0.77-0.23,1.53-0.46,2.29-0.69c0.82-0.25,1.63-0.51,2.45-0.76l0.17-0.05c0.66-0.21,1.33-0.42,1.99-0.63    c0.94-0.31,1.88-0.63,2.82-0.94l0.73-0.25c0.33-0.11,0.65-0.22,0.98-0.33c1.43-0.5,2.84-1,4.24-1.52c0.4-0.15,0.8-0.3,1.19-0.45    l0.56-0.21c0.9-0.34,1.8-0.68,2.68-1.03c0.62-0.24,1.23-0.49,1.84-0.73c0.86-0.35,1.72-0.7,2.57-1.05    c0.62-0.26,1.19-0.49,1.75-0.73c0.97-0.41,1.93-0.83,2.88-1.26l1.33-0.59c1.33-0.6,2.66-1.23,3.98-1.86l1.24-0.61    c0.93-0.45,1.86-0.91,2.77-1.38c0.45-0.23,0.89-0.46,1.33-0.69l0.15-0.08c0.84-0.44,1.67-0.88,2.49-1.32l0.1-0.05    c0.44-0.24,0.88-0.48,1.32-0.72c0.9-0.5,1.78-1,2.66-1.51l1.08-0.62c1.21-0.71,2.4-1.43,3.57-2.16l0.79-0.51    c0.9-0.57,1.81-1.15,2.69-1.74c0.28-0.19,0.56-0.38,0.84-0.57l0.34-0.23c0.75-0.51,1.49-1.02,2.22-1.54    c0.39-0.28,0.78-0.55,1.16-0.83c0.76-0.55,1.51-1.11,2.25-1.67l0.4-0.3c0.18-0.13,0.36-0.27,0.53-0.4c1.1-0.85,2.08-1.63,3.02-2.4    l0.39-0.33c0.84-0.7,1.66-1.4,2.47-2.12c0.2-0.17,0.39-0.35,0.58-0.52l0.32-0.29c0.62-0.56,1.24-1.13,1.84-1.71    c0.31-0.29,0.62-0.59,0.92-0.89c0.6-0.58,1.18-1.17,1.75-1.77l0.32-0.32c0.15-0.16,0.31-0.31,0.45-0.47    c0.9-0.95,1.66-1.79,2.35-2.57c6.46-7.42,12.07-15.9,16.67-25.21c7.22-14.62,12.08-31.37,14.42-49.79c0.3-2.37,0.56-4.79,0.78-7.2    c0.31-3.5,0.54-7.07,0.67-10.63c0.08-2.29,0.13-4.62,0.14-6.93c0.02-5.51-0.18-11.06-0.6-16.5c0,0,0,0,0,0    c-0.16-2.08-0.35-4.15-0.57-6.18c-0.32-2.95-0.7-5.88-1.14-8.7c-0.42-2.71-0.9-5.37-1.42-7.9c-0.34-1.63-0.69-3.23-1.07-4.76    c-0.36-1.49-0.74-2.93-1.13-4.3c-0.89-3.11-1.75-5.56-2.51-7.44c-13.35,8.54-33.16,14.71-53.44,16.59c-3,0.28-6.09,0.47-9.19,0.57    l-0.5,0.02c-0.97,0.03-1.93,0.05-2.9,0.06l-0.84,0c-1.62,0-3.34-0.01-5.08-0.06l-0.34-0.01c-0.28-0.01-0.55-0.01-0.83-0.02    c-0.77-0.03-1.56-0.07-2.34-0.11c-0.63-0.03-1.27-0.07-1.9-0.11c-0.71-0.04-1.43-0.09-2.16-0.15c-1.08-0.08-2.15-0.18-3.23-0.28    c-0.69-0.07-1.39-0.14-2.09-0.22c-0.97-0.11-1.95-0.22-2.92-0.35c-0.57-0.07-1.15-0.15-1.72-0.23c-1.05-0.15-2.1-0.31-3.17-0.48    l-0.4-0.06c-0.3-0.05-0.59-0.09-0.89-0.14c-1.46-0.25-2.93-0.52-4.41-0.81c-0.28-0.06-0.57-0.11-0.85-0.17l-0.38-0.08    c-1.17-0.24-2.35-0.5-3.53-0.77l-0.12-0.03c-0.41-0.09-0.83-0.19-1.24-0.29c-1.77-0.42-3.25-0.79-4.68-1.17    c-0.98-0.26-1.96-0.52-2.93-0.77l-0.83-0.21c-0.75-0.19-1.48-0.38-2.22-0.56l-0.76-0.19c-0.96-0.24-1.92-0.47-2.86-0.69l-0.41-0.1    c-0.81-0.19-1.63-0.38-2.44-0.56l-0.85-0.19c-0.72-0.16-1.44-0.32-2.16-0.48l-0.68-0.15c-0.92-0.2-1.83-0.39-2.74-0.57l-0.63-0.13    c-0.71-0.14-1.43-0.29-2.14-0.43l-0.84-0.16c-0.74-0.14-1.47-0.28-2.2-0.42l-0.52-0.1c-0.89-0.16-1.77-0.32-2.64-0.48l-0.7-0.12    c-0.68-0.12-1.33-0.23-1.98-0.34l-0.81-0.14c-0.77-0.13-1.54-0.25-2.3-0.37c-0.01,0-0.11-0.02-0.12-0.02l-0.16-0.03    c-0.84-0.13-1.68-0.26-2.51-0.39l-3.33-0.48c-0.81-0.11-1.62-0.23-2.42-0.33l-0.28-0.04c-0.69-0.09-1.41-0.18-2.13-0.27    l-0.73-0.09c-0.59-0.07-1.18-0.14-1.77-0.21l-0.64-0.07c-0.76-0.09-1.52-0.17-2.27-0.25l-0.44-0.05    c-0.64-0.07-1.25-0.13-1.86-0.19l-0.64-0.06c-0.62-0.06-1.21-0.12-1.81-0.18l-0.41-0.04c-0.74-0.07-1.46-0.13-2.17-0.19    l-2.71-0.22c-0.62-0.05-1.24-0.1-1.86-0.14l0.56-9.99l-0.71,9.97c-0.68-0.05-1.35-0.09-2.02-0.14l-2.4-0.15    c-1.32-0.08-2.57-0.14-3.78-0.2l-2.07-0.09c-1.19-0.05-2.33-0.08-3.43-0.11l-0.11,0c-0.68-0.02-1.27-0.03-1.85-0.04    c-3.79-0.07-7.21-2.28-8.84-5.7c-1.63-3.42-1.19-7.47,1.14-10.45c13.27-17,20.28-37.42,20.28-59.04c0-1.18-0.03-2.46-0.09-3.93    l-0.02-0.6c-0.05-1.17-0.14-2.41-0.24-3.69l-0.06-0.69c-0.12-1.32-0.25-2.52-0.4-3.67l-0.07-0.51c-0.18-1.3-0.36-2.5-0.56-3.66    l-0.04-0.25c-0.19-1.06-0.43-2.26-0.72-3.61l-0.13-0.59c-0.26-1.15-0.55-2.32-0.86-3.5l-0.16-0.61c-0.35-1.28-0.68-2.43-1.02-3.52    l-0.1-0.32c-0.37-1.16-0.76-2.32-1.17-3.45l-0.08-0.22c-0.4-1.11-0.84-2.23-1.34-3.46l-0.21-0.5c-0.46-1.12-0.95-2.23-1.45-3.31    l-0.21-0.45c-0.56-1.21-1.09-2.29-1.61-3.3c-0.02-0.04-0.04-0.08-0.06-0.11c-0.55-1.08-1.15-2.17-1.81-3.34l-0.12-0.21    c-0.59-1.04-1.21-2.08-1.91-3.19l-0.24-0.38c-0.67-1.07-1.35-2.1-2.02-3.08l-0.2-0.28c-1.44-2.09-2.99-4.15-4.59-6.13l-0.11-0.14    c-0.79-0.96-1.61-1.93-2.46-2.89l-0.2-0.23c-0.88-0.99-1.75-1.93-2.6-2.81c-1.86-1.93-3.78-3.76-5.75-5.5    c-0.02-0.02-0.08-0.07-0.1-0.09c-0.94-0.83-1.94-1.67-2.95-2.49c0,0-0.14-0.11-0.14-0.11c-3.07-2.48-6.34-4.8-9.7-6.88    c-0.01-0.01-0.02-0.01-0.03-0.02c-1.14-0.7-2.3-1.39-3.45-2.04c-2.13-1.2-4.33-2.33-6.55-3.36c-2.85-1.33-5.73-2.5-8.62-3.52    l-0.27-0.1c-1.94-0.68-3.9-1.29-5.82-1.83l-0.32-0.09c-0.86-0.24-1.71-0.46-2.57-0.67l-0.51-0.12c-0.64-0.15-1.26-0.29-1.89-0.43    c-1.36-0.3-2.7-0.56-3.98-0.78l-0.63-0.1c-0.77-0.13-1.55-0.25-2.34-0.36l-0.74-0.1c-0.95-0.13-1.91-0.24-2.87-0.34    c-0.04,0-0.08-0.01-0.13-0.01c-0.96-0.1-1.93-0.18-2.9-0.25l-0.83-0.05c-0.74-0.05-1.49-0.08-2.24-0.11l-0.87-0.03    c-0.99-0.03-1.99-0.05-3-0.05c-12.16,0-24.01,2.24-35.22,6.66c-1.45,0.57-2.9,1.18-4.31,1.82c-2.11,0.95-4.21,2-6.25,3.11    c-2.7,1.47-5.37,3.09-7.92,4.81c-2.54,1.72-5.03,3.58-7.4,5.53c-0.59,0.49-1.18,0.98-1.76,1.49c-1.16,1-2.31,2.05-3.42,3.1    c-1.66,1.58-3.29,3.25-4.83,4.95c-1.03,1.13-2.04,2.3-3.02,3.49c-1.47,1.78-2.88,3.62-4.21,5.5c-0.89,1.25-1.76,2.54-2.59,3.83    c-0.41,0.65-0.82,1.3-1.23,1.96c-9.08,14.95-13.89,32.14-13.9,49.72c0,0.03,0,0.06,0,0.09c0,1.1,0.03,2.19,0.06,3.28l0.03,0.76    c0.14,3.47,0.47,6.91,0.97,10.26c0.47,3.16-0.59,6.35-2.86,8.59c-10.73,10.6-20.88,17.02-21.31,17.29    c-0.27,0.17-0.56,0.33-0.85,0.48c-0.01,0.01-5.58,2.91-11.1,8.72c1.06,1.12,3.54,3,8.33,4.77c0.04,0.01,0.1,0.04,0.15,0.06    c6.59,2.41,15.58,3.92,26.01,4.38c5.05,0.22,10.03,0.15,14.78-0.21c3.2-0.24,6.32,1.07,8.39,3.52l0.39,0.46    c0.01,0.02,0.04,0.05,0.06,0.07c0.85,0.99,1.71,1.95,2.59,2.91l0.17,0.18c0.9,0.96,1.81,1.91,2.71,2.79l0.09,0.09    c1.89,1.86,3.87,3.66,5.89,5.35c0.02,0.02,0.11,0.1,0.13,0.11c0.91,0.76,1.92,1.56,2.97,2.37l0.32,0.24    c1,0.76,2.02,1.51,3.02,2.21l0.29,0.2c2.13,1.49,4.35,2.9,6.57,4.19l0.86,0.49c2.43,1.38,4.17,3.72,4.8,6.44    c0.63,2.72,0.09,5.59-1.48,7.9l-0.42,0.63c-0.35,0.52-0.71,1.07-1.07,1.64l-0.17,0.27c-0.35,0.55-0.71,1.14-1.07,1.74l-0.13,0.21    c-0.37,0.62-0.73,1.23-1.08,1.86l-0.12,0.21c-0.36,0.64-0.72,1.29-1.07,1.94l-0.1,0.19c-0.36,0.67-0.71,1.34-1.06,2.03l-0.1,0.2    c-0.34,0.67-0.68,1.38-1.02,2.09c0,0.01-0.05,0.1-0.05,0.11c-0.37,0.77-0.7,1.51-1.03,2.25c0,0.01-0.04,0.09-0.05,0.1    c-0.35,0.79-0.68,1.55-1,2.33c-0.01,0.02-0.04,0.1-0.05,0.11c-0.32,0.78-0.64,1.57-0.95,2.38c-0.01,0.03-0.03,0.09-0.05,0.12    c-0.3,0.79-0.61,1.61-0.91,2.44c-0.01,0.02-0.02,0.06-0.04,0.1c-0.3,0.83-0.59,1.67-0.87,2.52c-0.01,0.02-0.02,0.06-0.03,0.09    c-0.29,0.89-0.56,1.74-0.82,2.6c-0.01,0.02-0.01,0.04-0.02,0.05c-0.25,0.82-0.48,1.64-0.71,2.47c-0.01,0.02-0.03,0.12-0.04,0.14    c-0.22,0.79-0.43,1.61-0.64,2.44l-0.04,0.16c-0.22,0.86-0.4,1.66-0.58,2.47l-0.07,0.32c-0.18,0.8-0.34,1.58-0.5,2.37l-0.1,0.47    c-0.14,0.74-0.28,1.51-0.42,2.29l-0.09,0.53c-0.13,0.76-0.25,1.52-0.36,2.28l-0.09,0.61c-0.11,0.75-0.2,1.5-0.3,2.24l-0.09,0.73    c-0.08,0.72-0.16,1.46-0.23,2.19l-0.08,0.8c-0.06,0.72-0.12,1.44-0.17,2.17l-0.06,0.89c-0.04,0.71-0.08,1.42-0.11,2.13l-0.04,0.96    c-0.03,0.7-0.05,1.4-0.06,2.1l-0.01,1.05c-0.01,0.68-0.01,1.37,0,2.06c0,0.38,0.01,0.75,0.01,1.13c0.01,0.68,0.03,1.36,0.05,2.04    c0.01,0.4,0.03,0.8,0.05,1.2c0.03,0.66,0.06,1.34,0.1,2.02c0.02,0.42,0.05,0.83,0.08,1.25c0.05,0.67,0.1,1.33,0.16,2    c0.03,0.39,0.07,0.79,0.11,1.19l0.01,0.13c0.06,0.65,0.13,1.31,0.21,1.97c0.05,0.4,0.1,0.79,0.14,1.19l0.03,0.21    c0.08,0.64,0.17,1.3,0.26,1.95c0.06,0.45,0.13,0.89,0.2,1.34l0.02,0.1c0.1,0.65,0.2,1.29,0.31,1.94c0.07,0.44,0.16,0.88,0.24,1.33    l0.03,0.18c0.12,0.64,0.23,1.28,0.36,1.92c0.08,0.42,0.17,0.84,0.26,1.27l0.06,0.3c0.14,0.68,0.27,1.29,0.41,1.9    c0.1,0.42,0.2,0.85,0.3,1.28l0.11,0.47c0.14,0.58,0.28,1.17,0.43,1.76c0.12,0.45,0.24,0.91,0.36,1.36l0.15,0.56    c0.14,0.54,0.29,1.08,0.44,1.62c0.12,0.44,0.25,0.87,0.38,1.31l0.26,0.86c0.14,0.47,0.28,0.95,0.43,1.42    c0.14,0.43,0.28,0.87,0.43,1.31l0.29,0.89c0.15,0.47,0.31,0.95,0.47,1.42c0.15,0.45,0.32,0.9,0.48,1.36l0.35,0.97    c0.16,0.44,0.31,0.88,0.48,1.33c0.17,0.46,0.36,0.93,0.54,1.4l0.4,1.04c0.16,0.42,0.32,0.83,0.49,1.25    c0.19,0.48,0.39,0.95,0.59,1.43l0.47,1.12c0.16,0.39,0.33,0.79,0.5,1.19c0.21,0.48,0.43,0.96,0.64,1.44l0.54,1.21    c0.17,0.37,0.33,0.74,0.5,1.12c0.23,0.49,0.47,0.99,0.71,1.49l0.61,1.27c0.16,0.34,0.33,0.69,0.5,1.03    c0.27,0.55,0.56,1.1,0.85,1.66l0.64,1.24c0.16,0.31,0.31,0.61,0.47,0.92c0.37,0.7,0.75,1.4,1.14,2.1l0.58,1.06    c0.13,0.23,0.25,0.47,0.38,0.7c0.7,1.24,1.42,2.49,2.16,3.74c0.02,0.04,0.08,0.13,0.11,0.19c0.57,0.96,1.21,1.97,2.01,3.18    c0.17,0.26,0.35,0.52,0.53,0.78l0.16,0.23c0.5,0.73,1.01,1.46,1.54,2.18l0.25,0.34c0.17,0.24,0.34,0.48,0.52,0.71    c0.77,1.02,1.48,1.93,2.17,2.76c0.2,0.24,0.4,0.47,0.6,0.71l0.44,0.51c0.44,0.52,0.89,1.04,1.35,1.55c0.45,0.5,0.9,0.99,1.36,1.48    c0.36,0.39,0.74,0.78,1.12,1.17c10.69,10.97,24.83,19.82,42.02,26.3l0.11,0.04c7.27,2.73,15.14,5.06,23.38,6.89c0,0,0.01,0,0.01,0    c6.71,1.5,13.77,2.69,20.97,3.56l0.23,0.03c5.65,0.68,11.5,1.16,17.37,1.44c0.03,0,0.1,0.01,0.13,0.01    c1.31,0.06,2.71,0.12,4.1,0.16l0.56,0.02c1.37,0.04,2.76,0.07,4.15,0.09C266.71,446.64,266.73,446.64,266.75,446.64L266.75,446.64    z"/></g><g><g><g><path class="st1" d="M251.25,226.78c0,0,42.1-2.88,94.98,11.3s95.31-3.88,106.88-14.78c11.57-10.9,41.79,107.33-17.04,174.86      s-250.39,88.1-303.11-0.61s-0.51-162.2,25.46-167.89"/></g><g><path class="st2" d="M453.1,223.3c-1.19,1.12-2.73,2.32-4.55,3.56c-6.25,7.83-14.09,17.05-14.09,17.05l14.14-9      c0,0,3.86-5.79-5.79,11.35c-2.91,5.17-6.47,9.69-9.7,13.2c11.74-9.37,25.18-18.3,20.62-9.77c-5.14,9.64-43.71,38.57-84.21,21.55      c-40.5-17.02-54.64-16.41-101.57-5.05c-46.93,11.36-69.04,0-69.04,0l-2.96-36.08l4.19-1.75l-41.74,1.29      c-13.29,2.91-33.44,23.57-42.89,54.94c7.05,3.72,21.25,8.6,42.89,4.31c32.4-6.43,42.68,14.14,43.33,79.07s48.86,79.71,81,78.43      c32.14-1.29-31.5,14-61.71-6.82c-30.21-20.82-33.78-13.11-20.1-3.46c13.67,9.64,10.46,10.78-3.68,3.46s-31.5-20.82-31.5-20.82      s3.84,14.01,11.27,18.35c77.62,39.46,211.57,15.56,259.05-38.95C494.89,330.63,464.68,212.4,453.1,223.3z"/></g><g><path class="st6" d="M398.41,242.67c-14.88,6.3-33.42,10.5-52.19,5.41c-42.59-11.57-86.62-10-86.62-10      c0.72-4.56,1.94-8.37,3.54-11.53c16.14,0.13,47.11,1.88,83.08,11.53C365.31,243.19,383.01,244.1,398.41,242.67z M141.74,405.53      c0,0,35.9,15.15,16.68,0c-19.22-15.15-23.21-56.21-26.67-44.64c-3.46,11.57,14.74,54.22,0,26.73      c-14.74-27.49-16.23-103.02-16.23-103.03c-9.03,29.94-8.31,69.62,17.43,112.95c4.81,8.1,10.79,15.27,17.71,21.59L141.74,405.53z      "/></g></g><g><g><circle class="st1" cx="182.45" cy="161.4" r="106.06"/></g><g><path class="st6" d="M76.39,161.4c0,2.71,0.1,5.39,0.3,8.05c0.02-0.15,7.47-70.08,60.45-96.48      c53.04-26.43,99.16-2.96,99.16-2.96l0,0c-15.78-9.32-34.19-14.67-53.85-14.67C123.88,55.34,76.39,102.82,76.39,161.4z"/></g><g><path class="st2" d="M205.1,57.77c17.73,5.85,55.55,24.31,60.93,76.2c7.07,68.14-48.23,105.43-83.58,109.29      s-43.5-8.29-40.71-13.15c2.79-4.85,16.42-21.35,16.68-34c0.26-12.64-1.19,3.21-17.18-7.29s-36.57-2.04-49.5-3.43      c-3.74-0.4-8.5-1.66-13.41-3.75c9.45,48.89,52.47,85.81,104.12,85.81c58.58,0,106.06-47.49,106.06-106.06      C288.51,110.6,252.79,68.15,205.1,57.77z"/></g></g><g><g><path class="st18" d="M57.96,193.11c0,0,15.86-9.95,28.29-25.55s20.57-21.61,34.29-9.6c13.71,12.01,21.86,27.01,31.71,28.29      s6.43,11.14,0,21s-27.43,24.43-66.86,22.71c-39.43-1.71-49.71-16.71-42.43-24.86C50.25,196.97,57.96,193.11,57.96,193.11z"/></g><g><path class="st19" d="M152.25,186.26c-9.86-1.29-18-16.29-31.71-28.29c-4.09-3.58-7.68-5.55-11.04-6.15      c4.08,1.54,11.19,5.39,17.69,17.63c8.84,16.66,14.24,29.88-5.79,45.09c-19.85,15.08-64.43,10.47-65.19,10.39      c0.03,0.01,0.06,0.03,0.1,0.04c1.97,0.66,30.62,9.95,59.23-2.37c18.1-7.79,22.27-12.34,23.07-13.87      c0.02,0.19,0.06,0.41,0.15,0.68c1.1,3.11-11.25,10.96-19.47,17.52c18.1-4.57,28.72-13.14,32.97-19.66      C158.68,197.4,162.1,187.54,152.25,186.26z"/></g></g><g><g><path class="st1" d="M278.25,280.54c0,0,32.14-7.71,64.93,5.14c32.79,12.86,51.43,16.71,65.57,8.36      c14.14-8.36,11.57,13.5,5.14,49.5c-6.43,36-26.36,77.43-98.36,83.71s-101.57-44.5-100.93-77.29      C215.25,317.18,246.7,282.58,278.25,280.54z"/></g><g><path class="st2" d="M327.75,288.9c0,0,23.14,15.43,52.07,15.43s32.14-8.36,33.43-3.21c1.29,5.14,7.71,51.14-29.57,92.43      s-103.5,32-124.07,16.71c0,0,21.86,10.79,61.71,0s4.52-6.29-4.49-12.71c-9.01-6.43,10.28-0.64,37.92-16.71      c27.64-16.07,31.5-36.64,31.5-36.64s-10.93,14.14-19.29,16.71c-8.36,2.57,12.21-15.21,19.93-32.68      c7.71-17.46-18-3.32-21.21-7.82s12.03-2.81,9-9.64S340.6,308.83,327.75,288.9z"/></g><g><path class="st6" d="M219.1,339.63c-8.68,41.41,24.11,61.91,24.11,61.91c-20.29-18.69-14.46-39.68,3.86-28.76      c18.32,10.92,17.59,6.43,17.59,6.43s-4.09-2.89-18.55-17.14c-14.46-14.24-11.57-22.4,0-11.96c11.57,10.44,18.55,5.93,18.55,5.93      s-23.38-18.3-13.73-42.94c9.64-24.65,60.75-24.21,60.75-24.21C251.42,282.29,227.78,298.22,219.1,339.63z"/></g></g><g><g><circle class="st20" cx="175.22" cy="150.77" r="16.8"/></g><g><path class="st21" d="M175.22,133.97c-9.28,0-16.8,7.52-16.8,16.8c0,9.28,7.52,16.8,16.8,16.8s16.8-7.52,16.8-16.8      C192.02,141.49,184.5,133.97,175.22,133.97z M172.82,159.86c-15.97,0-15.94-24.78,0-24.78      C188.79,135.08,188.76,159.86,172.82,159.86z"/></g><g><circle class="st6" cx="172.1" cy="142.97" r="6"/></g></g></g></g></svg>