<?xml version="1.0" standalone="no"?>
<!DOCTYPE svg PUBLIC "-//W3C//DTD SVG 20010904//EN"
 "http://www.w3.org/TR/2001/REC-SVG-20010904/DTD/svg10.dtd">
<svg version="1.0" xmlns="http://www.w3.org/2000/svg"
 width="512.000000pt" height="512.000000pt" viewBox="0 0 512.000000 512.000000"
 preserveAspectRatio="xMidYMid meet">

<g transform="translate(0.000000,512.000000) scale(0.100000,-0.100000)"
fill="#000000" stroke="none">
<path d="M1783 3551 c-90 -33 -166 -102 -206 -189 -22 -47 -22 -47 -22 -802
l0 -755 28 -56 c32 -67 109 -142 175 -172 47 -22 47 -22 802 -22 755 0 755 0
802 22 66 30 143 105 175 172 l28 56 0 755 0 755 -28 56 c-32 67 -109 142
-175 172 -47 22 -50 22 -787 24 -705 2 -743 2 -792 -16z m1475 -367 c12 -8 22
-25 22 -37 0 -12 -57 -283 -126 -602 -111 -507 -130 -583 -151 -602 -16 -16
-29 -20 -43 -15 -11 4 -88 62 -172 128 -84 66 -158 123 -165 127 -22 14 -53
-10 -133 -103 -46 -52 -88 -98 -94 -102 -18 -12 -43 -9 -60 7 -8 8 -46 113
-85 234 -39 120 -77 223 -84 229 -8 7 -76 28 -153 48 -76 20 -147 43 -156 52
-23 19 -23 55 -2 73 14 12 1359 578 1374 579 3 0 16 -7 28 -16z"/>
<path d="M2602 2697 c-193 -117 -353 -217 -356 -223 -3 -9 82 -332 91 -343 9
-11 14 15 23 115 6 60 15 118 19 130 5 11 130 125 277 254 314 273 309 268
303 274 -3 3 -163 -90 -357 -207z"/>
</g>
</svg>
